<svg width="20" height="21" viewBox="0 0 20 21" fill="none" xmlns="http://www.w3.org/2000/svg">
<path fill-rule="evenodd" clip-rule="evenodd" d="M1.875 10.0555C1.875 5.56974 5.5142 1.93054 10 1.93054C14.4858 1.93054 18.125 5.56974 18.125 10.0555C18.125 14.5413 14.4858 18.1805 10 18.1805C5.5142 18.1805 1.875 14.5413 1.875 10.0555ZM10 3.18054C6.20455 3.18054 3.125 6.26009 3.125 10.0555C3.125 13.851 6.20455 16.9305 10 16.9305C13.7954 16.9305 16.875 13.851 16.875 10.0555C16.875 6.26009 13.7954 3.18054 10 3.18054ZM10 6.30554C10.3452 6.30554 10.625 6.58536 10.625 6.93054V9.43054H13.125C13.4702 9.43054 13.75 9.71036 13.75 10.0555C13.75 10.4007 13.4702 10.6805 13.125 10.6805H10.625V13.1805C10.625 13.5257 10.3452 13.8055 10 13.8055C9.65482 13.8055 9.375 13.5257 9.375 13.1805V10.6805H6.875C6.52982 10.6805 6.25 10.4007 6.25 10.0555C6.25 9.71036 6.52982 9.43054 6.875 9.43054H9.375V6.93054C9.375 6.58536 9.65482 6.30554 10 6.30554Z" fill="white"/>
</svg>
