<svg width="20" height="20" viewBox="0 0 20 20" fill="none" xmlns="http://www.w3.org/2000/svg">
<path fill-rule="evenodd" clip-rule="evenodd" d="M5.625 1.875C5.625 1.52982 5.34518 1.25 5 1.25C4.65482 1.25 4.375 1.52982 4.375 1.875V2.5H3.75C2.36929 2.5 1.25 3.61929 1.25 5V6.25V16.25C1.25 17.6307 2.36929 18.75 3.75 18.75H16.25C17.6307 18.75 18.75 17.6307 18.75 16.25V6.25V5C18.75 3.61929 17.6307 2.5 16.25 2.5H15.625V1.875C15.625 1.52982 15.3452 1.25 15 1.25C14.6548 1.25 14.375 1.52982 14.375 1.875V2.5H5.625V1.875ZM17.5 5.625V5C17.5 4.30964 16.9404 3.75 16.25 3.75H15H5H3.75C3.05964 3.75 2.5 4.30964 2.5 5V5.625H17.5ZM2.5 6.875H17.5V16.25C17.5 16.9404 16.9404 17.5 16.25 17.5H3.75C3.05964 17.5 2.5 16.9404 2.5 16.25V6.875Z" fill="#F7ADC6" fill-opacity="0.75"/>
</svg>
