<svg width="20" height="20" viewBox="0 0 20 20" fill="none" xmlns="http://www.w3.org/2000/svg">
<path d="M9.99969 11.2497C10.6901 11.2497 11.2497 10.6901 11.2497 9.99969C11.2497 9.30934 10.6901 8.74969 9.99969 8.74969C9.30934 8.74969 8.74969 9.30934 8.74969 9.99969C8.74969 10.6901 9.30934 11.2497 9.99969 11.2497Z" fill="#F7ADC6" fill-opacity="0.75"/>
<path d="M16.1868 3.81259C15.3758 2.99351 14.4109 2.34275 13.3475 1.89771C12.2842 1.45267 11.1435 1.2221 9.99077 1.21926C8.83809 1.21643 7.6962 1.44137 6.63071 1.88118C5.56522 2.32098 4.59713 2.96698 3.78205 3.78205C2.96698 4.59713 2.32098 5.56522 1.88118 6.63071C1.44137 7.6962 1.21643 8.83809 1.21926 9.99077C1.2221 11.1435 1.45267 12.2842 1.89771 13.3475C2.34275 14.4109 2.99351 15.3758 3.81259 16.1868C4.62364 17.0059 5.58854 17.6566 6.65185 18.1017C7.71516 18.5467 8.85593 18.7773 10.0086 18.7801C11.1613 18.783 12.3032 18.558 13.3687 18.1182C14.4342 17.6784 15.4023 17.0324 16.2173 16.2173C17.0324 15.4023 17.6784 14.4342 18.1182 13.3687C18.558 12.3032 18.783 11.1613 18.7801 10.0086C18.7773 8.85593 18.5467 7.71516 18.1017 6.65185C17.6566 5.58854 17.0059 4.62364 16.1868 3.81259ZM9.99969 13.1247C9.38163 13.1247 8.77744 12.9414 8.26354 12.598C7.74963 12.2547 7.34909 11.7666 7.11257 11.1956C6.87605 10.6246 6.81416 9.99623 6.93474 9.39004C7.05532 8.78385 7.35295 8.22703 7.78999 7.78999C8.22703 7.35295 8.78385 7.05532 9.39004 6.93474C9.99623 6.81416 10.6246 6.87605 11.1956 7.11257C11.7666 7.34909 12.2547 7.74963 12.598 8.26354C12.9414 8.77744 13.1247 9.38163 13.1247 9.99969C13.1238 10.8282 12.7942 11.6225 12.2084 12.2084C11.6225 12.7942 10.8282 13.1238 9.99969 13.1247Z" fill="#F7ADC6" fill-opacity="0.75"/>
</svg>
