<svg width="20" height="21" viewBox="0 0 20 21" fill="none" xmlns="http://www.w3.org/2000/svg">
<path d="M9.99998 17.5555C9.75389 17.5555 9.5117 17.4813 9.29686 17.3368C7.82811 16.3407 5.6953 14.7977 4.16405 12.9305C2.60155 11.0282 1.85155 9.07117 1.87498 6.95398C1.89842 4.5282 3.84764 2.55554 6.21483 2.55554C8.09373 2.55554 9.33983 3.70789 9.99998 4.54773C10.6601 3.70789 11.9062 2.55554 13.7851 2.55554C16.1523 2.55554 18.0976 4.5282 18.125 6.95398C18.1445 9.07117 17.3984 11.0282 15.8359 12.9305C14.3047 14.7977 12.1719 16.3407 10.7031 17.3368C10.4883 17.4852 10.2461 17.5555 9.99998 17.5555ZM6.21483 3.80554C4.53123 3.80554 3.14451 5.22351 3.12498 6.9696C3.08201 11.0555 6.57811 13.9852 9.99998 16.3055C13.4219 13.9813 16.918 11.0555 16.875 6.9696C16.8555 5.22742 15.4726 3.80554 13.7851 3.80554C11.6758 3.80554 10.5664 5.93835 10.5586 5.96179C10.4531 6.17273 10.2383 6.30554 9.99998 6.30554C9.7617 6.30554 9.54686 6.17273 9.44139 5.95789C9.42967 5.93835 8.3203 3.80554 6.21483 3.80554Z" fill="white"/>
</svg>
