<svg width="20" height="21" viewBox="0 0 20 21" fill="none" xmlns="http://www.w3.org/2000/svg">
<path d="M7.18074 18.8054C6.7265 18.8046 6.28411 18.6604 5.91668 18.3933C5.63308 18.1884 5.40211 17.9192 5.24274 17.6077C5.08337 17.2962 5.00014 16.9514 4.99988 16.6015C4.99886 16.1902 5.12704 15.789 5.36632 15.4544C5.6056 15.1199 5.94391 14.869 6.33348 14.7371L8.3202 14.0683C8.44624 14.0253 8.55556 13.9437 8.63268 13.8351C8.70979 13.7265 8.7508 13.5964 8.74988 13.4632V3.64917C8.74932 3.37064 8.8415 3.09986 9.01189 2.87953C9.18228 2.6592 9.42118 2.50187 9.6909 2.43237L13.9249 1.33315C14.0519 1.30023 14.1847 1.29683 14.3133 1.32321C14.4418 1.34959 14.5626 1.40504 14.6664 1.48532C14.7701 1.5656 14.8541 1.66858 14.912 1.78636C14.9698 1.90414 14.9998 2.03359 14.9999 2.1648V4.42065C15.0006 4.70004 14.908 4.97166 14.7367 5.1924C14.5655 5.41313 14.3254 5.57032 14.0546 5.63901L10.4745 6.54253C10.3378 6.5781 10.2169 6.65828 10.1309 6.77037C10.0449 6.88245 9.99881 7.02002 9.99988 7.16128V16.6179C10.0009 17.0128 9.87788 17.398 9.64811 17.7191C9.41834 18.0402 9.09347 18.2809 8.71942 18.4074L7.88074 18.6898C7.65526 18.7662 7.41881 18.8052 7.18074 18.8054V18.8054Z" fill="#F7ADC6"/>
</svg>
